<svg xmlns="http://www.w3.org/2000/svg" version="1.1" viewBox="-5.0 -10.0 110.0 135.0">
 <path d="m21.781 42.949c0.60938 0.058593 1.1992-0.14844 1.6211-0.57031l8.6016-8.6016 8.9609 8.9609c0.80859 0.80859 1.8906 1.2617 3.0391 1.2617 1.1484 0 2.2305-0.44922 3.0391-1.2617l8.9609-8.9609 8.9609 8.9609c0.71094 0.71094 1.6094 1.1406 2.6016 1.2383l0.39844-0.019531c1.25 0 2.3789-0.46875 3.2305-1.3203l8.2305-8.2305c0.66016-0.66016 0.76953-1.7188 0.26172-2.5-0.32812-0.51172-0.85938-0.83984-1.4688-0.89844-0.60156-0.058593-1.1914 0.14063-1.6211 0.57031l-8.5703 8.5703-8.8281-8.8281c-0.85156-0.85156-1.9883-1.3203-3.1992-1.3203s-2.3398 0.46875-3.1992 1.3203l-8.8008 8.8008-8.8008-8.8008c-0.85156-0.85156-1.9883-1.3203-3.1992-1.3203s-2.3398 0.46875-3.1992 1.3203l-8.2305 8.2305c-0.66016 0.66016-0.76953 1.7188-0.26172 2.5 0.32812 0.51172 0.87109 0.83984 1.4688 0.89844z"/>
 <path d="m78.219 57.012c-0.60938-0.058594-1.1914 0.14062-1.6211 0.57031l-8.5703 8.5703-8.8281-8.8281c-0.85156-0.85156-1.9883-1.3203-3.1992-1.3203s-2.3398 0.46875-3.1992 1.3203l-8.8008 8.8008-8.8008-8.8008c-0.85156-0.85156-1.9883-1.3203-3.1992-1.3203s-2.3398 0.46875-3.1992 1.3203l-8.2305 8.2305c-0.66016 0.66016-0.76953 1.7188-0.26172 2.5 0.32812 0.51172 0.87109 0.83984 1.4688 0.89844 0.60156 0.058594 1.1992-0.14844 1.6211-0.57812l8.6016-8.6016 8.9609 8.9609c0.80859 0.80859 1.8906 1.2617 3.0391 1.2617s2.2305-0.44922 3.0391-1.2617l8.9609-8.9609 8.9609 8.9609c0.71094 0.71094 1.6094 1.1406 2.6094 1.2383h0.39844c1.2383-0.011718 2.3789-0.48047 3.2305-1.3398l8.2305-8.2305c0.66016-0.66016 0.76953-1.7188 0.26172-2.5-0.32812-0.51172-0.87109-0.83984-1.4688-0.89844z"/>
<text x="0.0" y="117.5" font-size="5.0" font-weight="bold" font-family="Arbeit Regular, Helvetica, Arial-Unicode, Arial, Sans-serif" fill="#000000">Created by Gregor Cresnar</text><text x="0.0" y="122.5" font-size="5.0" font-weight="bold" font-family="Arbeit Regular, Helvetica, Arial-Unicode, Arial, Sans-serif" fill="#000000">from Noun Project</text></svg>