<svg xmlns="http://www.w3.org/2000/svg" version="1.1" viewBox="-5.0 -10.0 110.0 135.0">
 <path d="m27.27 49.031c0.62891 0.26953 1.2891 0.21094 1.8594-0.16016 0.55859-0.37109 0.87891-0.94922 0.87891-1.6211 0-0.82812-0.46094-1.6016-1.1094-1.8711-2.9688-1.2617-4.8906-4.1484-4.8906-7.3711 0-2.3008 0.98828-4.4883 2.7188-6.0117 1.4609-1.2812 3.3398-1.9883 5.3008-1.9883 0.33984 0 0.67969 0.019532 1.0312 0.070313 3.9688 0.51172 6.9609 4.0117 6.9609 8.1406v25.441c0 5.3008 3.9688 9.8281 9.0312 10.309 2.8594 0.26172 5.5898-0.64844 7.6914-2.5586 2.0781-1.8984 3.2812-4.5898 3.2812-7.3906v-26c0-2.4219 1.0781-4.6797 2.9609-6.2109 1.8789-1.5312 4.3398-2.1094 6.7383-1.6094 3.0195 0.62891 5.4805 3.0898 6.1211 6.1211 0.78906 3.7812-1.1992 7.6016-4.7383 9.0898-0.64062 0.26953-1.0781 0.98047-1.0781 1.7383v0.12891c0 0.66016 0.32812 1.2812 0.89062 1.6484 0.53125 0.35156 1.1406 0.42188 1.7109 0.17969 4.5-1.8711 7.3984-6.2188 7.3984-11.09 0-3.3086-1.3281-6.3984-3.7305-8.6914-2.4102-2.2891-5.5586-3.4492-8.8711-3.3008-6.3906 0.30859-11.391 5.7617-11.391 12.391v25.59c0 1.6914-0.71875 3.3086-1.9688 4.4414-1.25 1.1289-2.9297 1.6914-4.6211 1.5312-3.0312-0.28906-5.4102-3-5.4102-6.1484v-25.82c0-3.4102-1.4609-6.6602-4.0117-8.9414-2.5781-2.3086-5.8984-3.3711-9.3711-2.9805-5.5 0.60937-9.9297 5.0508-10.539 10.539-0.58984 5.3086 2.3008 10.301 7.1914 12.41z"/>
<text x="0.0" y="117.5" font-size="5.0" font-weight="bold" font-family="Arbeit Regular, Helvetica, Arial-Unicode, Arial, Sans-serif" fill="#000000">Created by Gregor Cresnar</text><text x="0.0" y="122.5" font-size="5.0" font-weight="bold" font-family="Arbeit Regular, Helvetica, Arial-Unicode, Arial, Sans-serif" fill="#000000">from Noun Project</text></svg>