<svg xmlns="http://www.w3.org/2000/svg" version="1.1" viewBox="-5.0 -10.0 110.0 135.0">
 <path d="m66 40c-6.0703 0-11 4.9297-11 11s4.9297 11 11 11c1.7617 0 3.4219-0.42969 4.8984-1.1719-3.3984 7.3906-10.68 12.172-19.77 12.172-4.2383 0-8.3906-1.3789-12.328-4.0898-0.91016-0.62891-2.1602-0.39844-2.7812 0.51172-0.62891 0.91016-0.39844 2.1484 0.51172 2.7812 4.6211 3.1797 9.5312 4.8008 14.602 4.8008 14.75 0 25.871-11.18 25.871-26 0-6.0703-4.9297-11-11-11zm0 18c-3.8594 0-7-3.1406-7-7s3.1406-7 7-7 7 3.1406 7 7-3.1406 7-7 7z"/>
 <path d="m45 49c0-6.0703-4.9297-11-11-11-1.7617 0-3.4219 0.42969-4.8984 1.1719 3.3984-7.3906 10.68-12.172 19.77-12.172 4.2383 0 8.3906 1.3789 12.328 4.0898 0.91016 0.62891 2.1602 0.39844 2.7812-0.51172 0.62891-0.91016 0.39844-2.1484-0.51172-2.7812-4.6211-3.1797-9.5312-4.8008-14.602-4.8008-14.75 0-25.871 11.18-25.871 26 0 6.0703 4.9297 11 11 11 6.0703 0 11-4.9297 11-11zm-11 7c-3.8594 0-7-3.1406-7-7s3.1406-7 7-7 7 3.1406 7 7-3.1406 7-7 7z"/>
<text x="0.0" y="117.5" font-size="5.0" font-weight="bold" font-family="Arbeit Regular, Helvetica, Arial-Unicode, Arial, Sans-serif" fill="#000000">Created by Gregor Cresnar</text><text x="0.0" y="122.5" font-size="5.0" font-weight="bold" font-family="Arbeit Regular, Helvetica, Arial-Unicode, Arial, Sans-serif" fill="#000000">from Noun Project</text></svg>