<svg xmlns="http://www.w3.org/2000/svg" version="1.1" viewBox="-5.0 -10.0 110.0 135.0">
 <path d="m23 28h1.1016c1.9688-0.070312 3.9219 0.71094 5.4219 2.1797 1.5781 1.5391 2.4805 3.6914 2.4805 5.8984v17.922c0 0.71875 0.41016 1.3906 1.0586 1.7383l0.12109 0.058594s0.089844 0.039063 0.17188 0.070313c0.070312 0.019531 0.12109 0.039062 0.17969 0.058593 0.050782 0.011719 0.10938 0.019531 0.17188 0.03125l0.089844 0.019531h0.10938 0.10156 0.14063c0.070312 0 0.12891 0 0.19141-0.019531 0.058594-0.011719 0.14062-0.03125 0.21094-0.050781 0.078125-0.019531 0.12891-0.03125 0.17969-0.050781 0.058593-0.019531 0.12109-0.058594 0.17969-0.089844l0.17188-0.089844s0.089844-0.070312 0.14062-0.10938l0.17969-0.14844s0.050781-0.058594 0.089844-0.10156l0.12891-0.16016c0.050781-0.058594 0.058594-0.089844 0.078125-0.12891l0.12891-0.23828c0.03125-0.058593 0.039063-0.12109 0.058594-0.17969 0.03125-0.10938 0.050781-0.17969 0.070312-0.23047 0.03125-0.14062 0.039063-0.26172 0.039063-0.37891v-18c0-4.4102 3.5898-8 8-8s8 3.5898 8 8v15c0 2.1016 0.39844 4.1797 1.1797 6.1797l0.46094 1.1602-9.5781 10.461c-1.8711 2.0312-4.5195 3.1992-7.2812 3.1992h-2.7812c-1.1016 0-2 0.89844-2 2s0.89844 2 2 2h2.7812c3.8789 0 7.6016-1.6406 10.219-4.5l8.8203-9.6211 1.4805 1.4102c3.1914 3.0391 7.3398 4.7109 11.711 4.7109h0.26172 0.078125c5.3008-0.03125 9.6602-4.4102 9.6602-9.7812v-0.44141c0-5.3906-4.3906-9.7812-9.7812-9.7812-3.6406 0-7.2109 1.4883-9.8086 4.0898l-3.4219 3.4219v-19.512c0-6.6211-5.3789-12-12-12-3.2383 0-6.2891 1.2812-8.5703 3.6211l-1.4297 1.4609-1.4297-1.4609c-2.2188-2.2695-5.1914-3.5586-8.3594-3.6094h-1.2188c-1.1016 0-2 0.89063-2 2 0 1.1094 0.89844 2 2 2zm38.949 27.199c1.8711-2.0312 4.5195-3.1992 7.2812-3.1992 0.25 0 0.48047 0.03125 0.71875 0.058594l0.17969 0.03125c0.10938 0.019531 0.19141 0.039062 0.26172 0.070312 2.2188 0.44922 4.0586 2.3516 4.5 4.6211 0.48047 2.4805-0.57031 4.2188-1.25 5.0312-1.1484 1.3906-2.8281 2.1914-4.6289 2.1914-3.4102 0-6.6406-1.3203-9.0898-3.7188l-1.3789-1.3516 3.4219-3.7305z"/>
<text x="0.0" y="117.5" font-size="5.0" font-weight="bold" font-family="Arbeit Regular, Helvetica, Arial-Unicode, Arial, Sans-serif" fill="#000000">Created by Gregor Cresnar</text><text x="0.0" y="122.5" font-size="5.0" font-weight="bold" font-family="Arbeit Regular, Helvetica, Arial-Unicode, Arial, Sans-serif" fill="#000000">from Noun Project</text></svg>