<svg xmlns="http://www.w3.org/2000/svg" version="1.1" viewBox="-5.0 -10.0 110.0 135.0">
 <path d="m76 64c-1.1016 0-2 0.89844-2 2v2c0 4.4102-3.5898 8-8 8s-8-3.5898-8-8c0-1.1602 0.14062-2.3281 0.42188-3.4219l7.1094-26.531c0.32031-1.1797 0.48047-2.3984 0.48047-3.6211v-0.42188c0-7.7188-6.2812-14-14-14s-14 6.2812-14 14v0.32031c0 1.3008 0.17969 2.6016 0.53906 3.8516l0.89844 3.1406c-1.6484-0.83984-3.5-1.3008-5.4414-1.3008-6.6211 0-12 5.3789-12 12s5.3789 12 12 12c6.6211 0 12-5.3789 12-12v-2c0-0.19141-0.03125-0.37109-0.078124-0.55078l-3.5391-12.379c-0.26172-0.89063-0.37891-1.8203-0.37891-2.75v-0.32031c0-5.5117 4.4883-10 10-10s10 4.4883 10 10v0.42188c0 0.87109-0.10938 1.7383-0.33984 2.5898l-7.1094 26.57c-0.35938 1.4492-0.53906 2.9414-0.53906 4.4219 0 6.6211 5.3789 12 12 12 6.6211 0 12-5.3789 12-12v-2c0-1.1016-0.89844-2-2-2zm-42-4c-4.4102 0-8-3.5898-8-8s3.5898-8 8-8c3.4102 0 6.4492 2.1719 7.5586 5.3906 0.28906 0.83984 0.44141 1.7188 0.44141 2.6094 0 4.4102-3.5898 8-8 8z"/>
<text x="0.0" y="117.5" font-size="5.0" font-weight="bold" font-family="Arbeit Regular, Helvetica, Arial-Unicode, Arial, Sans-serif" fill="#000000">Created by Gregor Cresnar</text><text x="0.0" y="122.5" font-size="5.0" font-weight="bold" font-family="Arbeit Regular, Helvetica, Arial-Unicode, Arial, Sans-serif" fill="#000000">from Noun Project</text></svg>