<svg xmlns="http://www.w3.org/2000/svg" version="1.1" viewBox="-5.0 -10.0 110.0 135.0">
 <path d="m77 70h-54c-1.1016 0-2 0.89844-2 2s0.89844 2 2 2h54c1.1016 0 2-0.89844 2-2s-0.89844-2-2-2z"/>
 <path d="m77 55h-10.82c-0.64844 0-1.1797-0.53125-1.1797-1.1797v-0.55078c0-0.28125 0.12891-0.53906 0.23047-0.69922 2.2891-3.6406 3.1914-7.8281 2.5898-12.121-1.1094-8-7.75-14.449-15.781-15.328-5.1211-0.57031-10.238 1.0586-14.051 4.4688-3.8086 3.4102-6 8.3008-6 13.41 0 3.3906 0.96094 6.6914 2.7695 9.5703 0.10938 0.17188 0.23047 0.42969 0.23047 0.71094v0.55078c0 0.64844-0.53125 1.1797-1.1797 1.1797h-10.82c-1.1016 0-2 0.89844-2 2 0 1.1016 0.89844 2 2 2h10.82c2.8516 0 5.1797-2.3203 5.1797-5.1797v-0.55078c0-0.98047-0.28906-1.9609-0.85156-2.8398-1.4102-2.2305-2.1484-4.8008-2.1484-7.4297 0-3.9805 1.6992-7.7812 4.6602-10.43 3-2.6914 6.8906-3.9219 10.941-3.4805 6.2383 0.69141 11.391 5.6992 12.262 11.91 0.46875 3.3398-0.23047 6.6094-2.0117 9.4414-0.55078 0.87891-0.85156 1.8594-0.85156 2.8398v0.55078c0 2.8516 2.3203 5.1797 5.1797 5.1797h10.82c1.1016 0 2-0.89844 2-2 0-1.1016-0.89844-2-2-2z"/>
<text x="0.0" y="117.5" font-size="5.0" font-weight="bold" font-family="Arbeit Regular, Helvetica, Arial-Unicode, Arial, Sans-serif" fill="#000000">Created by Gregor Cresnar</text><text x="0.0" y="122.5" font-size="5.0" font-weight="bold" font-family="Arbeit Regular, Helvetica, Arial-Unicode, Arial, Sans-serif" fill="#000000">from Noun Project</text></svg>