<svg xmlns="http://www.w3.org/2000/svg" version="1.1" viewBox="-5.0 -10.0 110.0 135.0">
 <path d="m76.922 48h-15.859c0.60156-8.1992 4.8789-15.789 11.711-20.59 0.89844-0.62891 1.1211-1.8789 0.48828-2.7891-0.62891-0.89844-1.8789-1.1211-2.7891-0.48828-7.8906 5.5391-12.809 14.352-13.422 23.859h-14.09c-0.60938-9.5117-5.5312-18.309-13.422-23.859-0.89844-0.64062-2.1484-0.42187-2.7891 0.48828-0.62891 0.89844-0.42188 2.1484 0.48828 2.7891 6.8281 4.8008 11.102 12.379 11.711 20.59h-15.859c-1.1016 0-2 0.89844-2 2s0.89844 2 2 2h15.859c-0.60156 8.1992-4.8789 15.789-11.711 20.578-0.89844 0.62891-1.1211 1.8789-0.48828 2.7891 0.39062 0.55078 1.0117 0.85156 1.6406 0.85156 0.39844 0 0.80078-0.12109 1.1484-0.35938 7.8906-5.5391 12.809-14.352 13.422-23.859h14.09c0.60938 9.5117 5.5312 18.309 13.422 23.859 0.35156 0.25 0.75 0.35938 1.1484 0.35938 0.62891 0 1.25-0.30078 1.6406-0.85156 0.62891-0.89844 0.42188-2.1484-0.48828-2.7891-6.8281-4.7891-11.102-12.379-11.711-20.578h15.859c1.1016 0 2-0.89844 2-2s-0.89844-2-2-2z"/>
<text x="0.0" y="117.5" font-size="5.0" font-weight="bold" font-family="Arbeit Regular, Helvetica, Arial-Unicode, Arial, Sans-serif" fill="#000000">Created by Gregor Cresnar</text><text x="0.0" y="122.5" font-size="5.0" font-weight="bold" font-family="Arbeit Regular, Helvetica, Arial-Unicode, Arial, Sans-serif" fill="#000000">from Noun Project</text></svg>