<svg xmlns="http://www.w3.org/2000/svg" version="1.1" viewBox="-5.0 -10.0 110.0 135.0">
 <path d="m26 40c8.6602 0 16.559 3.2617 22.57 8.6016l-19.98 19.98c-0.78125 0.78125-0.78125 2.0508 0 2.8281 0.39062 0.39062 0.89844 0.58984 1.4102 0.58984s1.0195-0.19922 1.4102-0.58984l19.98-19.98c5.3516 6.0117 8.6016 13.91 8.6016 22.57 0 1.1016 0.89844 2 2 2 1.1016 0 2-0.89844 2-2 0-9.7617-3.6992-18.672-9.7695-25.398l17.359-17.359c0.26172 0.62891 0.41016 1.3086 0.41016 2.0312v14.73c0 1.1016 0.89844 2 2 2 1.1016 0 2-0.89844 2-2v-14.73c0-5.1094-4.1602-9.2695-9.2695-9.2695h-14.73c-1.1016 0-2 0.89844-2 2 0 1.1016 0.89844 2 2 2h14.73c0.71875 0 1.4102 0.14844 2.0312 0.41016l-17.359 17.359c-6.7383-6.0703-15.648-9.7695-25.398-9.7695-1.1016 0-2 0.89844-2 2 0 1.1016 0.89844 2 2 2z"/>
<text x="0.0" y="117.5" font-size="5.0" font-weight="bold" font-family="Arbeit Regular, Helvetica, Arial-Unicode, Arial, Sans-serif" fill="#000000">Created by Gregor Cresnar</text><text x="0.0" y="122.5" font-size="5.0" font-weight="bold" font-family="Arbeit Regular, Helvetica, Arial-Unicode, Arial, Sans-serif" fill="#000000">from Noun Project</text></svg>