<svg xmlns="http://www.w3.org/2000/svg" version="1.1" viewBox="-5.0 -10.0 110.0 135.0">
 <path d="m76.828 56.43c-0.78125-0.78125-2.0508-0.78125-2.8281 0-0.78125 0.78125-0.78125 2.0508 0 2.8281l6.7383 6.7383h-9.7383c-3.3086 0-6-2.6914-6-6v-27c0-6.0703-4.9297-11-11-11-3.7188 0-7.0117 1.8594-9 4.6992-1.9883-2.8281-5.2812-4.6992-9-4.6992s-6.7383 1.7188-8.75 4.3594c-1.8008-2.6289-4.8281-4.3594-8.25-4.3594-1.1016 0-2 0.89844-2 2 0 1.1016 0.89844 2 2 2 3.3086 0 6 2.6914 6 6v24c0 1.1016 0.89844 2 2 2s2-0.89844 2-2v-23c0-3.8594 3.1406-7 7-7s7 3.1406 7 7v23c0 1.1016 0.89844 2 2 2s2-0.89844 2-2v-23c0-3.8594 3.1406-7 7-7s7 3.1406 7 7v27c0 5.5117 4.4883 10 10 10h9.4297l-6.4297 6.4297c-0.78125 0.78125-0.78125 2.0508 0 2.8281 0.39062 0.39062 0.89844 0.58984 1.4102 0.58984 0.51172 0 1.0195-0.19922 1.4102-0.58984l6.7891-6.7891c2.5508-2.5508 2.5508-6.6992 0-9.25l-6.7891-6.7891z"/>
<text x="0.0" y="117.5" font-size="5.0" font-weight="bold" font-family="Arbeit Regular, Helvetica, Arial-Unicode, Arial, Sans-serif" fill="#000000">Created by Gregor Cresnar</text><text x="0.0" y="122.5" font-size="5.0" font-weight="bold" font-family="Arbeit Regular, Helvetica, Arial-Unicode, Arial, Sans-serif" fill="#000000">from Noun Project</text></svg>