<svg xmlns="http://www.w3.org/2000/svg" version="1.1" viewBox="-5.0 -10.0 110.0 135.0">
 <path d="m26 28c4.1719 0 7.9219 2.3203 9.7891 6.0508l0.83984 1.6914c0.82812 1.6484 1.9414 3.1289 3.3086 4.3789l1.8516 1.6914-2.0508 1.4297c-4.8516 3.3789-7.7383 8.8984-7.7383 14.77 0 9.9297 8.0781 18 18 18s18-8.0703 18-18c0-5.8711-2.8906-11.391-7.7383-14.77l-2.0508-1.4297 1.8516-1.6914c1.3711-1.25 2.4805-2.7188 3.3086-4.3789l0.83984-1.6914c1.8711-3.7305 5.6211-6.0508 9.7891-6.0508 1.1016 0 2-0.89844 2-2s-0.89844-2-2-2c-5.6992 0-10.82 3.1719-13.371 8.2617l-0.83984 1.6914c-1.8711 3.7305-5.6211 6.0508-9.7891 6.0508-4.1719 0-7.9219-2.3203-9.7891-6.0508l-0.83984-1.6914c-2.5508-5.0898-7.6719-8.2617-13.371-8.2617-1.1016 0-2 0.89844-2 2s0.89844 2 2 2zm24 16c7.7188 0 14 6.2812 14 14s-6.2812 14-14 14-14-6.2812-14-14 6.2812-14 14-14z"/>
<text x="0.0" y="117.5" font-size="5.0" font-weight="bold" font-family="Arbeit Regular, Helvetica, Arial-Unicode, Arial, Sans-serif" fill="#000000">Created by Gregor Cresnar</text><text x="0.0" y="122.5" font-size="5.0" font-weight="bold" font-family="Arbeit Regular, Helvetica, Arial-Unicode, Arial, Sans-serif" fill="#000000">from Noun Project</text></svg>