<svg xmlns="http://www.w3.org/2000/svg" version="1.1" viewBox="-5.0 -10.0 110.0 135.0">
 <path d="m72 36c-2.25 0-4.3281 0.76172-6 2.0195v-3.0195c0-6.0703-4.9297-11-11-11-3.7188 0-7.0117 1.8594-9 4.6992-1.9883-2.8281-5.2812-4.6992-9-4.6992s-6.7383 1.7188-8.75 4.3594c-1.8008-2.6289-4.8281-4.3594-8.25-4.3594-1.1016 0-2 0.89844-2 2s0.89844 2 2 2c3.3086 0 6 2.6914 6 6v24c0 1.1016 0.89844 2 2 2s2-0.89844 2-2v-23c0-3.8594 3.1406-7 7-7s7 3.1406 7 7v23c0 1.1016 0.89844 2 2 2s2-0.89844 2-2v-23c0-3.8594 3.1406-7 7-7s7 3.1406 7 7v31c0 5.5117 4.4883 10 10 10 1.1016 0 2-0.89844 2-2s-0.89844-2-2-2c-3.3086 0-6-2.6914-6-6v-6h2c7.7188 0 14-6.2812 14-14 0-5.5117-4.4883-10-10-10zm-3.9883 20h-2.0117v-10c0-3.3086 2.6914-6 6-6s6 2.6914 6 6c0 5.5117-4.4805 9.9883-9.9883 10z"/>
<text x="0.0" y="117.5" font-size="5.0" font-weight="bold" font-family="Arbeit Regular, Helvetica, Arial-Unicode, Arial, Sans-serif" fill="#000000">Created by Gregor Cresnar</text><text x="0.0" y="122.5" font-size="5.0" font-weight="bold" font-family="Arbeit Regular, Helvetica, Arial-Unicode, Arial, Sans-serif" fill="#000000">from Noun Project</text></svg>